<svg width="66" height="21" viewBox="0 0 66 21" fill="none" xmlns="http://www.w3.org/2000/svg">
<path d="M18.536 20H14.196V4.6H8.064L7.952 6.868C7.76533 11.1613 7.28 14.344 6.496 16.416C5.992 17.7787 5.30133 18.7307 4.424 19.272C3.56533 19.8133 2.38933 20.084 0.896 20.084C0.504 20.084 0.130667 20.056 -0.224 20V15.968C0.112 16.0053 0.345333 16.024 0.476 16.024C1.46533 16.024 2.184 15.5667 2.632 14.652C2.912 14.092 3.164 13.0187 3.388 11.432C3.612 9.82667 3.752 6.88667 3.808 2.612L3.836 0.399999H18.536V20ZM20.9038 12.692C20.9038 10.452 21.6598 8.632 23.1718 7.232C24.6838 5.832 26.5504 5.132 28.7718 5.132C31.0304 5.132 32.9158 5.84133 34.4278 7.26C35.9398 8.66 36.6958 10.4707 36.6958 12.692C36.6958 14.932 35.9304 16.752 34.3998 18.152C32.8691 19.5333 30.9931 20.224 28.7718 20.224C26.5504 20.224 24.6838 19.5147 23.1718 18.096C21.6598 16.6773 20.9038 14.876 20.9038 12.692ZM25.1038 12.692C25.1038 13.756 25.4491 14.652 26.1398 15.38C26.8491 16.0893 27.7264 16.444 28.7718 16.444C29.8918 16.444 30.7878 16.0987 31.4598 15.408C32.1504 14.7173 32.4958 13.812 32.4958 12.692C32.4958 11.5907 32.1504 10.6853 31.4598 9.976C30.7691 9.26667 29.8731 8.912 28.7718 8.912C27.6704 8.912 26.7838 9.26667 26.1118 9.976C25.4398 10.6853 25.1038 11.5907 25.1038 12.692ZM42.5622 20H38.5022V5.44H49.8702V9.22H42.5622V20ZM50.0522 12.692C50.0522 10.452 50.8082 8.632 52.3202 7.232C53.8322 5.832 55.6989 5.132 57.9202 5.132C60.1789 5.132 62.0642 5.84133 63.5762 7.26C65.0882 8.66 65.8442 10.4707 65.8442 12.692C65.8442 14.932 65.0789 16.752 63.5482 18.152C62.0175 19.5333 60.1415 20.224 57.9202 20.224C55.6989 20.224 53.8322 19.5147 52.3202 18.096C50.8082 16.6773 50.0522 14.876 50.0522 12.692ZM54.2522 12.692C54.2522 13.756 54.5975 14.652 55.2882 15.38C55.9975 16.0893 56.8749 16.444 57.9202 16.444C59.0402 16.444 59.9362 16.0987 60.6082 15.408C61.2989 14.7173 61.6442 13.812 61.6442 12.692C61.6442 11.5907 61.2989 10.6853 60.6082 9.976C59.9175 9.26667 59.0215 8.912 57.9202 8.912C56.8189 8.912 55.9322 9.26667 55.2602 9.976C54.5882 10.6853 54.2522 11.5907 54.2522 12.692Z" fill="#023047"/>
</svg>
